# xmcd CD database file
#
# Track frame offsets:
#	183
#	17780
#	36550
#	55723
#	86303
#	104335
#	126398
#	156353
#	178855
#	210803
#	233155
#	251593
#	271168
#	305735
#	331515
#
# Disc length: 4795 seconds
#
# Revision: 4
# Processed by: cddbd v1.5.2PL0 Copyright (c) Steve Scherf et al.
# Submitted via: CDex 1.85
#
DISCID=c612b90f
DTITLE=Gary Moore - The Essential Gary Moore
DYEAR=1994
DGENRE=Blues
TTITLE0=Always gonna love you
TTITLE1=Still got the blues (for you)
TTITLE2=Empty rooms
TTITLE3=Parisienne Walkways (live)
TTITLE4=One day
TTITLE5=Separate ways
TTITLE6=Story of the blues
TTITLE7=Crying in the shadows
TTITLE8=With love (remember)
TTITLE9=Midnight blues
TTITLE10=Falling in love with you
TTITLE11=Jumpin' at shadows
TTITLE12=Blues for narada
TTITLE13=Johnny boy
TTITLE14=Extra
EXTD=YEAR: 1994
EXTT0=
EXTT1=
EXTT2=
EXTT3=
EXTT4=
EXTT5=
EXTT6=
EXTT7=
EXTT8=
EXTT9=
EXTT10=
EXTT11=
EXTT12=
EXTT13=
EXTT14=
PLAYORDER=
